<mxfile host="app.diagrams.net" agent="Mozilla/5.0 (Windows NT 10.0; Win64; x64) AppleWebKit/537.36 (KHTML, like Gecko) Chrome/132.0.0.0 YaBrowser/25.2.0.0 Safari/537.36" version="26.1.3">
  <diagram name="Страница — 1" id="Wik_iftwV6NFonndSJ8w">
    <mxGraphModel dx="812" dy="597" grid="1" gridSize="10" guides="1" tooltips="1" connect="1" arrows="1" fold="1" page="1" pageScale="1" pageWidth="827" pageHeight="1169" math="0" shadow="0">
      <root>
        <mxCell id="0" />
        <mxCell id="1" parent="0" />
        <mxCell id="nVKhC-2Fp0U1QWJw0A_l-4" value="" style="edgeStyle=orthogonalEdgeStyle;rounded=0;orthogonalLoop=1;jettySize=auto;html=1;" edge="1" parent="1" source="nVKhC-2Fp0U1QWJw0A_l-1" target="nVKhC-2Fp0U1QWJw0A_l-2">
          <mxGeometry relative="1" as="geometry">
            <Array as="points">
              <mxPoint x="490" y="270" />
              <mxPoint x="490" y="270" />
            </Array>
          </mxGeometry>
        </mxCell>
        <mxCell id="nVKhC-2Fp0U1QWJw0A_l-1" value="ALU" style="rounded=1;whiteSpace=wrap;html=1;" vertex="1" parent="1">
          <mxGeometry x="354" y="240" width="120" height="120" as="geometry" />
        </mxCell>
        <mxCell id="nVKhC-2Fp0U1QWJw0A_l-2" value="reg" style="rounded=1;whiteSpace=wrap;html=1;" vertex="1" parent="1">
          <mxGeometry x="520" y="240" width="40" height="120" as="geometry" />
        </mxCell>
        <mxCell id="nVKhC-2Fp0U1QWJw0A_l-7" value="" style="edgeStyle=orthogonalEdgeStyle;rounded=0;orthogonalLoop=1;jettySize=auto;html=1;" edge="1" parent="1">
          <mxGeometry relative="1" as="geometry">
            <mxPoint x="508" y="330" as="sourcePoint" />
            <mxPoint x="520" y="330" as="targetPoint" />
            <Array as="points">
              <mxPoint x="474" y="330" />
              <mxPoint x="474" y="330" />
            </Array>
          </mxGeometry>
        </mxCell>
        <mxCell id="nVKhC-2Fp0U1QWJw0A_l-21" style="edgeStyle=orthogonalEdgeStyle;rounded=0;orthogonalLoop=1;jettySize=auto;html=1;exitX=1;exitY=0.5;exitDx=0;exitDy=0;" edge="1" parent="1" source="nVKhC-2Fp0U1QWJw0A_l-8">
          <mxGeometry relative="1" as="geometry">
            <mxPoint x="350" y="275" as="targetPoint" />
          </mxGeometry>
        </mxCell>
        <mxCell id="nVKhC-2Fp0U1QWJw0A_l-8" value="first_i" style="text;html=1;align=center;verticalAlign=middle;whiteSpace=wrap;rounded=0;" vertex="1" parent="1">
          <mxGeometry x="260" y="260" width="60" height="30" as="geometry" />
        </mxCell>
        <mxCell id="nVKhC-2Fp0U1QWJw0A_l-18" value="" style="edgeStyle=orthogonalEdgeStyle;rounded=0;orthogonalLoop=1;jettySize=auto;html=1;" edge="1" parent="1" source="nVKhC-2Fp0U1QWJw0A_l-9" target="nVKhC-2Fp0U1QWJw0A_l-1">
          <mxGeometry relative="1" as="geometry" />
        </mxCell>
        <mxCell id="nVKhC-2Fp0U1QWJw0A_l-9" value="second_i" style="text;html=1;align=center;verticalAlign=middle;whiteSpace=wrap;rounded=0;" vertex="1" parent="1">
          <mxGeometry x="260" y="290" width="60" height="30" as="geometry" />
        </mxCell>
        <mxCell id="nVKhC-2Fp0U1QWJw0A_l-17" style="edgeStyle=orthogonalEdgeStyle;rounded=0;orthogonalLoop=1;jettySize=auto;html=1;exitX=1;exitY=0.5;exitDx=0;exitDy=0;" edge="1" parent="1" source="nVKhC-2Fp0U1QWJw0A_l-10">
          <mxGeometry relative="1" as="geometry">
            <mxPoint x="350" y="335" as="targetPoint" />
          </mxGeometry>
        </mxCell>
        <mxCell id="nVKhC-2Fp0U1QWJw0A_l-10" value="opcode_i" style="text;html=1;align=center;verticalAlign=middle;whiteSpace=wrap;rounded=0;" vertex="1" parent="1">
          <mxGeometry x="260" y="320" width="60" height="30" as="geometry" />
        </mxCell>
        <mxCell id="nVKhC-2Fp0U1QWJw0A_l-24" style="edgeStyle=orthogonalEdgeStyle;rounded=0;orthogonalLoop=1;jettySize=auto;html=1;exitX=1;exitY=0.5;exitDx=0;exitDy=0;entryX=0.5;entryY=1;entryDx=0;entryDy=0;" edge="1" parent="1" source="nVKhC-2Fp0U1QWJw0A_l-22" target="nVKhC-2Fp0U1QWJw0A_l-2">
          <mxGeometry relative="1" as="geometry" />
        </mxCell>
        <mxCell id="nVKhC-2Fp0U1QWJw0A_l-22" value="clk_i" style="text;html=1;align=center;verticalAlign=middle;whiteSpace=wrap;rounded=0;" vertex="1" parent="1">
          <mxGeometry x="260" y="370" width="60" height="30" as="geometry" />
        </mxCell>
        <mxCell id="nVKhC-2Fp0U1QWJw0A_l-27" value="" style="edgeStyle=orthogonalEdgeStyle;rounded=0;orthogonalLoop=1;jettySize=auto;html=1;" edge="1" parent="1" source="nVKhC-2Fp0U1QWJw0A_l-25" target="nVKhC-2Fp0U1QWJw0A_l-26">
          <mxGeometry relative="1" as="geometry" />
        </mxCell>
        <mxCell id="nVKhC-2Fp0U1QWJw0A_l-25" value="rst_i" style="text;html=1;align=center;verticalAlign=middle;whiteSpace=wrap;rounded=0;" vertex="1" parent="1">
          <mxGeometry x="260" y="160" width="60" height="30" as="geometry" />
        </mxCell>
        <mxCell id="nVKhC-2Fp0U1QWJw0A_l-29" style="edgeStyle=orthogonalEdgeStyle;rounded=0;orthogonalLoop=1;jettySize=auto;html=1;exitX=1;exitY=0.5;exitDx=0;exitDy=0;entryX=0.5;entryY=0;entryDx=0;entryDy=0;" edge="1" parent="1" source="nVKhC-2Fp0U1QWJw0A_l-26" target="nVKhC-2Fp0U1QWJw0A_l-2">
          <mxGeometry relative="1" as="geometry" />
        </mxCell>
        <mxCell id="nVKhC-2Fp0U1QWJw0A_l-26" value="reset" style="rounded=1;whiteSpace=wrap;html=1;" vertex="1" parent="1">
          <mxGeometry x="350" y="160" width="50" height="30" as="geometry" />
        </mxCell>
        <mxCell id="nVKhC-2Fp0U1QWJw0A_l-32" style="edgeStyle=orthogonalEdgeStyle;rounded=0;orthogonalLoop=1;jettySize=auto;html=1;exitX=1;exitY=0.5;exitDx=0;exitDy=0;entryX=0.5;entryY=0;entryDx=0;entryDy=0;" edge="1" parent="1" source="nVKhC-2Fp0U1QWJw0A_l-30" target="nVKhC-2Fp0U1QWJw0A_l-1">
          <mxGeometry relative="1" as="geometry" />
        </mxCell>
        <mxCell id="nVKhC-2Fp0U1QWJw0A_l-30" value="valid_i" style="text;html=1;align=center;verticalAlign=middle;whiteSpace=wrap;rounded=0;" vertex="1" parent="1">
          <mxGeometry x="260" y="200" width="60" height="30" as="geometry" />
        </mxCell>
        <mxCell id="nVKhC-2Fp0U1QWJw0A_l-36" value="" style="endArrow=none;html=1;rounded=0;entryX=0.5;entryY=1;entryDx=0;entryDy=0;" edge="1" parent="1" target="nVKhC-2Fp0U1QWJw0A_l-26">
          <mxGeometry width="50" height="50" relative="1" as="geometry">
            <mxPoint x="375" y="215" as="sourcePoint" />
            <mxPoint x="370" y="290" as="targetPoint" />
          </mxGeometry>
        </mxCell>
        <mxCell id="nVKhC-2Fp0U1QWJw0A_l-37" value="valid_o" style="text;html=1;align=center;verticalAlign=middle;whiteSpace=wrap;rounded=0;" vertex="1" parent="1">
          <mxGeometry x="610" y="250" width="60" height="40" as="geometry" />
        </mxCell>
        <mxCell id="nVKhC-2Fp0U1QWJw0A_l-38" value="result_o" style="text;html=1;align=center;verticalAlign=middle;whiteSpace=wrap;rounded=0;" vertex="1" parent="1">
          <mxGeometry x="610" y="310" width="60" height="40" as="geometry" />
        </mxCell>
        <mxCell id="nVKhC-2Fp0U1QWJw0A_l-39" value="" style="endArrow=classic;html=1;rounded=0;exitX=1;exitY=0.75;exitDx=0;exitDy=0;entryX=0;entryY=0.5;entryDx=0;entryDy=0;" edge="1" parent="1" source="nVKhC-2Fp0U1QWJw0A_l-2" target="nVKhC-2Fp0U1QWJw0A_l-38">
          <mxGeometry width="50" height="50" relative="1" as="geometry">
            <mxPoint x="320" y="340" as="sourcePoint" />
            <mxPoint x="370" y="290" as="targetPoint" />
          </mxGeometry>
        </mxCell>
        <mxCell id="nVKhC-2Fp0U1QWJw0A_l-40" value="" style="endArrow=classic;html=1;rounded=0;exitX=1;exitY=0.25;exitDx=0;exitDy=0;entryX=0;entryY=0.5;entryDx=0;entryDy=0;" edge="1" parent="1" source="nVKhC-2Fp0U1QWJw0A_l-2" target="nVKhC-2Fp0U1QWJw0A_l-37">
          <mxGeometry width="50" height="50" relative="1" as="geometry">
            <mxPoint x="320" y="340" as="sourcePoint" />
            <mxPoint x="370" y="290" as="targetPoint" />
          </mxGeometry>
        </mxCell>
      </root>
    </mxGraphModel>
  </diagram>
</mxfile>
